<svg width="22" height="22" viewBox="0 0 22 22" fill="none" xmlns="http://www.w3.org/2000/svg">
<path d="M10.9997 1.83325C13.4903 1.83325 13.801 1.84242 14.7782 1.88825C15.7544 1.93409 16.419 2.08717 17.0038 2.3145C17.6088 2.54734 18.1185 2.86267 18.6282 3.37142C19.0943 3.82966 19.455 4.38396 19.6851 4.99575C19.9115 5.57967 20.0655 6.24517 20.1113 7.22142C20.1544 8.19859 20.1663 8.50934 20.1663 10.9999C20.1663 13.4905 20.1572 13.8013 20.1113 14.7784C20.0655 15.7547 19.9115 16.4193 19.6851 17.0041C19.4556 17.6162 19.0949 18.1707 18.6282 18.6284C18.1698 19.0944 17.6155 19.455 17.0038 19.6853C16.4199 19.9118 15.7544 20.0658 14.7782 20.1116C13.801 20.1547 13.4903 20.1666 10.9997 20.1666C8.50909 20.1666 8.19834 20.1574 7.22117 20.1116C6.24492 20.0658 5.58034 19.9118 4.99551 19.6853C4.38347 19.4557 3.82907 19.095 3.37117 18.6284C2.90496 18.1703 2.54428 17.6159 2.31426 17.0041C2.08692 16.4202 1.93384 15.7547 1.88801 14.7784C1.84492 13.8013 1.83301 13.4905 1.83301 10.9999C1.83301 8.50934 1.84217 8.19859 1.88801 7.22142C1.93384 6.24425 2.08692 5.58059 2.31426 4.99575C2.54364 4.38358 2.90441 3.82913 3.37117 3.37142C3.82921 2.90505 4.38357 2.54434 4.99551 2.3145C5.58034 2.08717 6.24401 1.93409 7.22117 1.88825C8.19834 1.84517 8.50909 1.83325 10.9997 1.83325ZM10.9997 6.41659C9.7841 6.41659 8.61831 6.89947 7.75877 7.75901C6.89923 8.61855 6.41634 9.78434 6.41634 10.9999C6.41634 12.2155 6.89923 13.3813 7.75877 14.2408C8.61831 15.1004 9.7841 15.5833 10.9997 15.5833C12.2153 15.5833 13.381 15.1004 14.2406 14.2408C15.1001 13.3813 15.583 12.2155 15.583 10.9999C15.583 9.78434 15.1001 8.61855 14.2406 7.75901C13.381 6.89947 12.2153 6.41659 10.9997 6.41659ZM16.958 6.18742C16.958 5.88352 16.8373 5.59208 16.6224 5.37719C16.4075 5.16231 16.1161 5.04159 15.8122 5.04159C15.5083 5.04159 15.2168 5.16231 15.0019 5.37719C14.7871 5.59208 14.6663 5.88352 14.6663 6.18742C14.6663 6.49131 14.7871 6.78276 15.0019 6.99765C15.2168 7.21253 15.5083 7.33325 15.8122 7.33325C16.1161 7.33325 16.4075 7.21253 16.6224 6.99765C16.8373 6.78276 16.958 6.49131 16.958 6.18742ZM10.9997 8.24992C11.729 8.24992 12.4285 8.53965 12.9442 9.05537C13.4599 9.5711 13.7497 10.2706 13.7497 10.9999C13.7497 11.7293 13.4599 12.4287 12.9442 12.9445C12.4285 13.4602 11.729 13.7499 10.9997 13.7499C10.2703 13.7499 9.57086 13.4602 9.05513 12.9445C8.53941 12.4287 8.24967 11.7293 8.24967 10.9999C8.24967 10.2706 8.53941 9.5711 9.05513 9.05537C9.57086 8.53965 10.2703 8.24992 10.9997 8.24992Z" fill="#FFC738"/>
</svg>
