<svg width="22" height="22" viewBox="0 0 22 22" fill="none" xmlns="http://www.w3.org/2000/svg">
<path d="M7.49503 18.4651C14.6112 18.4651 18.5041 12.5687 18.5041 7.46428C18.5041 7.29928 18.5041 7.13192 18.497 6.96692C19.2549 6.41828 19.909 5.73903 20.4287 4.961C19.7207 5.27314 18.9705 5.47887 18.2024 5.5715C19.0115 5.08786 19.6175 4.32689 19.9077 3.43003C19.1476 3.88039 18.3155 4.19654 17.4481 4.36464C16.8649 3.74356 16.0932 3.33211 15.2525 3.19403C14.4118 3.05595 13.549 3.19894 12.7978 3.60085C12.0466 4.00276 11.4489 4.64117 11.0973 5.41717C10.7456 6.19318 10.6597 7.06349 10.8528 7.89328C9.31444 7.81615 7.80949 7.41651 6.43555 6.7203C5.0616 6.02409 3.84934 5.04685 2.87739 3.85196C2.38397 4.70417 2.23339 5.71222 2.45622 6.67142C2.67906 7.63062 3.25861 8.46905 4.07718 9.01646C3.46378 8.99562 2.86386 8.83091 2.32582 8.5356V8.58864C2.32688 9.48138 2.63615 10.3464 3.20135 11.0374C3.76655 11.7285 4.55302 12.2032 5.42782 12.3813C5.09577 12.4728 4.75277 12.5184 4.40835 12.5168C4.16555 12.5176 3.92323 12.4951 3.68471 12.4496C3.93196 13.2181 4.41339 13.89 5.06157 14.3713C5.70976 14.8525 6.49223 15.1189 7.29939 15.1332C5.92819 16.2102 4.2344 16.7943 2.49082 16.7915C2.18359 16.7928 1.87657 16.7751 1.57153 16.7385C3.34118 17.8667 5.39635 18.4657 7.49503 18.4651Z" fill="#FFC738"/>
</svg>
